<svg width="32" height="33" viewBox="0 0 32 33" fill="none" xmlns="http://www.w3.org/2000/svg">
<g clip-path="url(#clip0_27427_1958)">
<path d="M32 16.0148C32 7.17821 24.8366 0.0147705 16 0.0147705C7.16344 0.0147705 0 7.17821 0 16.0148C0 24.8513 7.16344 32.0148 16 32.0148C24.8366 32.0148 32 24.8513 32 16.0148Z" fill="#03111C"/>
<path fill-rule="evenodd" clip-rule="evenodd" d="M24.1628 16.0084H27.1335C27.1335 15.8841 27.1315 15.7604 27.1274 15.6371H24.8099L27.1032 15.1809C27.084 14.9188 27.0557 14.6593 27.0186 14.4027L24.8446 14.8351L26.9464 13.9645C26.8958 13.6912 26.8351 13.4214 26.7648 13.1554L24.7079 14.0075L26.6393 12.717C26.5522 12.435 26.4542 12.1578 26.3458 11.8859L24.3914 13.1918L26.1525 11.4307C26.0234 11.1446 25.8825 10.8649 25.7306 10.5923L23.8959 12.427L25.4448 10.1088C25.2679 9.82592 25.0786 9.55158 24.8777 9.2865L23.2299 11.7526L24.4642 8.77292C24.2346 8.50444 23.9925 8.24698 23.7387 8.00142L22.4797 11.0411C23.5354 12.4175 24.1628 14.1397 24.1628 16.0084ZM7.82421 16.0084C7.82421 15.7834 7.8333 15.5605 7.85113 15.3401H4.87324C4.86015 15.5612 4.85352 15.784 4.85352 16.0084H7.82421ZM8.04697 14.1055L5.13124 13.5255C5.22854 13.0981 5.35042 12.68 5.49532 12.2728L8.45253 12.861C8.28553 13.2607 8.14935 13.6765 8.04697 14.1055ZM9.01922 11.7521L6.24949 10.6048C6.45769 10.2302 6.68683 9.86887 6.93538 9.52235L9.78236 10.7016C9.5013 11.0302 9.24593 11.3814 9.01922 11.7521ZM10.6254 9.85019L8.09093 8.15673C8.38808 7.85767 8.70209 7.57537 9.03146 7.31141L11.6709 9.07508C11.3017 9.3058 10.9521 9.56524 10.6254 9.85019ZM12.6489 8.55292L10.4433 6.34735C10.8038 6.13977 11.1769 5.95184 11.5614 5.78495L13.8891 8.11271C13.4608 8.22655 13.0464 8.3743 12.6489 8.55292ZM14.8471 7.91885L13.0681 5.25647C13.4641 5.14902 13.8687 5.06285 14.2808 4.99926L16.1797 7.84114C16.1178 7.83978 16.0557 7.8391 15.9935 7.8391C15.6044 7.8391 15.2217 7.86625 14.8471 7.91885ZM16.9825 7.89831L15.7287 4.8715C15.8167 4.86944 15.905 4.86841 15.9935 4.86841C16.3157 4.86841 16.6347 4.88209 16.95 4.9089L18.3005 8.16937C17.8746 8.0442 17.4342 7.95282 16.9825 7.89831ZM18.8746 8.3616L18.2242 5.09179C18.6181 5.17186 19.0045 5.27271 19.3821 5.39315L20.087 8.93715C19.7017 8.7136 19.2965 8.52064 18.8746 8.3616ZM20.4248 9.14416V5.78456C20.7814 5.93936 21.1284 6.11229 21.4645 6.30214V9.94151C21.1404 9.64905 20.7928 9.38221 20.4248 9.14416ZM21.613 10.0788L22.2651 6.80026C22.5727 7.01009 22.8691 7.23494 23.1534 7.47373L22.4512 11.0041C22.1955 10.6747 21.9152 10.3653 21.613 10.0788Z" fill="#FBFF3A"/>
<path fill-rule="evenodd" clip-rule="evenodd" d="M21.1923 16.0084H24.1629C24.1629 15.8661 24.1593 15.7248 24.1521 15.5844L22.6744 15.5586L24.1322 15.295C24.1016 14.9412 24.0484 14.5939 23.9742 14.2544L22.3004 14.5571L23.8958 13.9286C23.8091 13.5983 23.7023 13.2761 23.5766 12.9635L21.7508 13.6827L23.4233 12.6069C23.2864 12.3083 23.1319 12.0193 22.9613 11.7414L21.0618 12.9632L22.7162 11.3655C22.5364 11.1057 22.342 10.8568 22.134 10.62L20.2714 12.4187L21.781 10.2427C21.5667 10.0275 21.3405 9.82434 21.1035 9.63404L19.4205 12.0601L20.6291 9.28057C20.3894 9.11521 20.1406 8.96226 19.8833 8.82269L18.6915 11.5637C20.1909 12.4757 21.1923 14.1251 21.1923 16.0084ZM10.7949 16.0084H7.82422C7.82422 15.8703 7.82766 15.7331 7.83443 15.5967L10.8072 15.6486C10.799 15.7674 10.7949 15.8874 10.7949 16.0084ZM19.28 8.52702C19.0253 8.41488 18.7636 8.31543 18.496 8.22942L17.8608 11.1551C18.1282 11.258 18.3849 11.3824 18.6289 11.5262L19.28 8.52702ZM17.7667 8.03201C17.5078 7.97466 17.2443 7.92968 16.9768 7.89757L16.9245 10.8928C17.1953 10.9417 17.4588 11.0117 17.7132 11.1008L17.7667 8.03201ZM15.9936 7.83899C15.7853 7.83899 15.5789 7.84683 15.3746 7.86213L15.9077 10.8104C15.9363 10.8099 15.9649 10.8097 15.9936 10.8097C16.2274 10.8097 16.4575 10.8251 16.6831 10.855L16.138 7.84029C16.0899 7.83944 16.0418 7.83899 15.9936 7.83899ZM14.4434 11.0447L12.7985 8.48746C12.5873 8.5773 12.3805 8.67584 12.1789 8.78251L13.7955 11.2959C14.0043 11.1983 14.2206 11.1142 14.4434 11.0447ZM13.3532 11.5291L11.2531 9.35433C11.0772 9.47991 10.9064 9.6122 10.7413 9.75098L12.8128 11.896C12.9847 11.7629 13.1652 11.6403 13.3532 11.5291ZM9.9076 10.5586C9.77221 10.7097 9.64235 10.8658 9.51836 11.0267L11.9641 12.7234C12.0933 12.5651 12.2316 12.4145 12.3783 12.2726L9.9076 10.5586ZM8.84483 12.0514C8.75278 12.2173 8.66632 12.3868 8.58573 12.5596L11.3122 13.745C11.3956 13.5727 11.4882 13.4058 11.5895 13.2448L8.84483 12.0514ZM8.13711 13.7615C8.08857 13.9315 8.04545 14.1038 8.00787 14.2781L10.9115 14.9085C10.9492 14.7336 10.9956 14.5619 11.0504 14.394L8.13711 13.7615ZM15.5759 10.8262C15.3279 10.8459 15.0847 10.8831 14.8477 10.9364L13.7504 8.15081C13.9817 8.08494 14.217 8.02901 14.4561 7.98347L15.5759 10.8262Z" fill="#FBFF3A"/>
<path fill-rule="evenodd" clip-rule="evenodd" d="M20.7776 16.0084L21.1923 15.9939C21.192 15.9109 21.1898 15.8284 21.1858 15.7464L18.6658 15.8344L18.6217 15.8272L21.1352 15.2353C21.1211 15.1409 21.1045 15.0473 21.0854 14.9546L18.6984 15.5167L20.9651 14.4837C20.9334 14.3802 20.8986 14.2782 20.8608 14.1775L18.7379 15.145L20.677 13.7491C20.6243 13.64 20.5679 13.5331 20.508 13.4284L18.6826 14.7425L20.2656 13.045C20.1889 12.9348 20.1082 12.8276 20.0235 12.7238L18.5228 14.3331L19.7257 12.3893C19.623 12.2834 19.5159 12.1819 19.4045 12.085L18.2545 13.9433L19.0539 11.8054C18.9241 11.7107 18.7897 11.6219 18.6512 11.5394L17.8806 13.6003L18.2513 11.3242C18.0952 11.2488 17.9346 11.1809 17.7702 11.1212L17.4103 13.3309L17.3283 10.9826C17.149 10.9351 16.9658 10.8969 16.7794 10.8687L16.8594 13.1595L16.3083 10.8191C16.2042 10.8129 16.0992 10.8097 15.9936 10.8097C15.8985 10.8097 15.804 10.8122 15.7102 10.8173L16.2495 13.1077L15.2278 10.8657C15.0166 10.8969 14.8095 10.9408 14.6073 10.9966L15.6074 13.1911L14.1384 11.1505C13.9289 11.2305 13.726 11.3237 13.5306 11.429L14.9639 13.42L13.1043 11.6859C12.9092 11.8165 12.7235 11.9601 12.5483 12.1152L14.3518 13.797L12.1931 12.4612C12.0257 12.6405 11.8708 12.8317 11.7298 13.0333L13.8057 14.3179L11.47 13.4446C11.3437 13.6669 11.2334 13.8995 11.1405 14.1407L13.3588 14.9701L10.9923 14.5847C10.9196 14.8403 10.8661 15.1039 10.8332 15.374L13.0414 15.7336L10.7986 15.8119C10.7962 15.8771 10.7949 15.9426 10.7949 16.0084H13.7656C13.7656 14.7779 14.7631 13.7803 15.9936 13.7803C17.2241 13.7803 18.2216 14.7779 18.2216 16.0084H20.7776Z" fill="#FBFF3A"/>
<path fill-rule="evenodd" clip-rule="evenodd" d="M24.1628 15.9684H27.1335C27.1335 16.0927 27.1315 16.2164 27.1274 16.3397H24.8099L27.1032 16.7959C27.084 17.0579 27.0557 17.3175 27.0186 17.5741L24.8445 17.1417L26.9464 18.0123C26.8958 18.2856 26.8351 18.5554 26.7648 18.8214L24.7079 17.9693L26.6393 19.2598C26.5522 19.5418 26.4542 19.819 26.3458 20.0909L24.3914 18.785L26.1525 20.5461C26.0234 20.8322 25.8825 21.1119 25.7306 21.3845L23.8959 19.5498L25.4448 21.868C25.2679 22.1509 25.0786 22.4252 24.8777 22.6903L23.2299 20.2242L24.4642 23.2039C24.2346 23.4724 23.9925 23.7298 23.7387 23.9753L22.4797 20.9357C23.5354 19.5593 24.1628 17.8371 24.1628 15.9684ZM7.82415 15.9684C7.82415 16.1934 7.8333 16.4163 7.85113 16.6367H4.87324C4.86015 16.4156 4.85352 16.1928 4.85352 15.9684H7.82415ZM8.04697 17.8713L5.13124 18.4513C5.22854 18.8787 5.35042 19.2968 5.49532 19.704L8.45253 19.1158C8.28547 18.7161 8.14935 18.3003 8.04697 17.8713ZM9.01922 20.2247L6.24949 21.372C6.45769 21.7466 6.68683 22.1079 6.93538 22.4545L9.78236 21.2752C9.5013 20.9466 9.24593 20.5954 9.01922 20.2247ZM10.6254 22.1266L8.09093 23.8201C8.38808 24.1191 8.70209 24.4014 9.03146 24.6654L11.6709 22.9017C11.3017 22.671 10.9521 22.4116 10.6254 22.1266ZM12.6489 23.4239L10.4433 25.6294C10.8038 25.837 11.1769 26.025 11.5614 26.1918L13.8891 23.8641C13.4608 23.7503 13.0464 23.6025 12.6489 23.4239ZM14.8471 24.0579L13.0681 26.7203C13.4641 26.8278 13.8687 26.914 14.2808 26.9775L16.1797 24.1357C16.1178 24.137 16.0557 24.1377 15.9935 24.1377C15.6044 24.1377 15.2217 24.1105 14.8471 24.0579ZM16.9825 24.0785L15.7287 27.1053C15.8167 27.1074 15.905 27.1084 15.9935 27.1084C16.3157 27.1084 16.6347 27.0947 16.95 27.0679L18.3005 23.8074C17.8746 23.9326 17.4342 24.024 16.9825 24.0785ZM18.8746 23.6152L18.2242 26.885C18.6181 26.8049 19.0045 26.7041 19.3821 26.5836L20.087 23.0396C19.7017 23.2632 19.2965 23.4562 18.8746 23.6152ZM20.4248 22.8326V26.1922C20.7814 26.0374 21.1284 25.8645 21.4645 25.6747V22.0353C21.1404 22.3277 20.7928 22.5946 20.4248 22.8326ZM21.613 21.898L22.2651 25.1765C22.5727 24.9667 22.8691 24.7419 23.1534 24.5031L22.4511 20.9727C22.1955 21.3021 21.9152 21.6114 21.613 21.898Z" fill="#FBFF3A"/>
<path fill-rule="evenodd" clip-rule="evenodd" d="M21.1923 15.9684H24.1629C24.1629 16.1105 24.1593 16.2519 24.1521 16.3923L22.6744 16.4181L24.1322 16.6818C24.1016 17.0355 24.0484 17.3829 23.9742 17.7223L22.3004 17.4197L23.8958 18.0481C23.8091 18.3785 23.7023 18.7006 23.5766 19.0132L21.7508 18.2941L23.4233 19.3699C23.2864 19.6685 23.1319 19.9574 22.9613 20.2354L21.0618 19.0136L22.7162 20.6112C22.5364 20.871 22.342 21.12 22.134 21.3567L20.2714 19.558L21.781 21.7341C21.5667 21.9492 21.3405 22.1524 21.1035 22.3427L19.4205 19.9166L20.6291 22.6962C20.3894 22.8615 20.1406 23.0145 19.8833 23.154L18.6915 20.4131C20.1909 19.501 21.1923 17.8516 21.1923 15.9684ZM10.7949 15.9684H7.82422C7.82422 16.1064 7.82766 16.2437 7.83443 16.38L10.8072 16.3282C10.799 16.2093 10.7949 16.0893 10.7949 15.9684ZM19.28 23.4497C19.0253 23.5618 18.7636 23.6613 18.496 23.7473L17.8608 20.8217C18.1282 20.7187 18.3849 20.5943 18.6289 20.4506L19.28 23.4497ZM17.7667 23.9447C17.5078 24.0021 17.2443 24.0471 16.9768 24.0792L16.9245 21.0839C17.1953 21.035 17.4588 20.9651 17.7132 20.8759L17.7667 23.9447ZM15.9936 24.1377C15.7853 24.1377 15.5789 24.1299 15.3746 24.1146L15.9077 21.1664C15.9363 21.1668 15.9649 21.1671 15.9936 21.1671C16.2274 21.1671 16.4575 21.1517 16.6831 21.1217L16.138 24.1365C16.0899 24.1373 16.0418 24.1377 15.9936 24.1377ZM14.4434 20.932L12.7985 23.4893C12.5873 23.3994 12.3805 23.3009 12.1789 23.1942L13.7955 20.6808C14.0043 20.7784 14.2206 20.8625 14.4434 20.932ZM13.3532 20.4476L11.2531 22.6224C11.0772 22.4968 10.9064 22.3645 10.7413 22.2258L12.8128 20.0807C12.9847 20.2139 13.1652 20.3365 13.3532 20.4476ZM9.9076 21.4181C9.77221 21.2671 9.64235 21.1109 9.51836 20.95L11.9641 19.2533C12.0933 19.4116 12.2316 19.5622 12.3783 19.7041L9.9076 21.4181ZM8.84483 19.9254C8.75278 19.7595 8.66632 19.59 8.58573 19.4172L11.3121 18.2317C11.3956 18.404 11.4882 18.5709 11.5895 18.732L8.84483 19.9254ZM8.13711 18.2153C8.08857 18.0452 8.04545 17.873 8.00787 17.6986L10.9115 17.0682C10.9492 17.2431 10.9956 17.4148 11.0504 17.5827L8.13711 18.2153ZM15.5759 21.1505C15.3279 21.1308 15.0847 21.0937 14.8477 21.0404L13.7504 23.8259C13.9817 23.8918 14.217 23.9477 14.4561 23.9933L15.5759 21.1505Z" fill="#FBFF3A"/>
<path fill-rule="evenodd" clip-rule="evenodd" d="M20.7776 15.9684L21.1923 15.9829C21.192 16.0659 21.1898 16.1484 21.1858 16.2304L18.6658 16.1424L18.6217 16.1495L21.1352 16.7414C21.1211 16.8358 21.1045 16.9295 21.0854 17.0222L18.6984 16.4601L20.9651 17.4931C20.9334 17.5965 20.8986 17.6986 20.8608 17.7992L18.7379 16.8318L20.677 18.2277C20.6243 18.3368 20.5679 18.4437 20.508 18.5483L18.6826 17.2343L20.2656 18.9317C20.1889 19.042 20.1082 19.1491 20.0235 19.2529L18.5228 17.6437L19.7257 19.5875C19.623 19.6934 19.5159 19.7949 19.4045 19.8917L18.2545 18.0334L19.0539 20.1713C18.9241 20.266 18.7897 20.3548 18.6512 20.4374L17.8806 18.3765L18.2513 20.6525C18.0952 20.728 17.9346 20.7958 17.7702 20.8556L17.4103 18.6458L17.3283 20.9941C17.149 21.0417 16.9658 21.0798 16.7794 21.1081L16.8594 18.8172L16.3083 21.1577C16.2042 21.1639 16.0992 21.1671 15.9936 21.1671C15.8985 21.1671 15.804 21.1645 15.7102 21.1594L16.2495 18.869L15.2278 21.1111C15.0166 21.0799 14.8095 21.036 14.6073 20.9802L15.6074 18.7857L14.1384 20.8263C13.9289 20.7462 13.726 20.653 13.5306 20.5477L14.9639 18.5567L13.1043 20.2909C12.9092 20.1602 12.7235 20.0167 12.5483 19.8615L14.3518 18.1797L12.1931 19.5156C12.0257 19.3362 11.8708 19.1451 11.7298 18.9434L13.8057 17.6589L11.47 18.5321C11.3437 18.3098 11.2334 18.0773 11.1405 17.836L13.3588 17.0067L10.9923 17.3921C10.9196 17.1365 10.8661 16.8728 10.8332 16.6028L13.0414 16.2432L10.7986 16.1648C10.7962 16.0997 10.7949 16.0342 10.7949 15.9684H13.7656C13.7656 17.1989 14.7631 18.1964 15.9936 18.1964C17.2241 18.1964 18.2216 17.1989 18.2216 15.9684H20.7776Z" fill="#FBFF3A"/>
</g>
<defs>
<clipPath id="clip0_27427_1958">
<rect width="32" height="32" fill="white" transform="translate(0 0.0147705)"/>
</clipPath>
</defs>
</svg>
