<svg width="95" height="94" viewBox="0 0 95 94" fill="none" xmlns="http://www.w3.org/2000/svg">
<path fill-rule="evenodd" clip-rule="evenodd" d="M82.2569 47.2257H94.7602C94.7602 46.7027 94.7516 46.1816 94.7346 45.6628H84.9803L94.6328 43.7428C94.5518 42.6399 94.4327 41.5476 94.2767 40.4672L85.1262 42.2873L93.9727 38.623C93.7594 37.4726 93.5041 36.337 93.2085 35.2178L84.551 38.8039L92.68 33.3723C92.3134 32.1854 91.901 31.0187 91.4449 29.8742L83.2187 35.3707L90.6312 27.9583C90.0877 26.7541 89.4949 25.577 88.8552 24.4295L81.1333 32.1515L87.6526 22.3946C86.9079 21.2041 86.1113 20.0494 85.2658 18.9338L78.3304 29.3134L83.5252 16.7721C82.5589 15.6419 81.5398 14.5583 80.4718 13.525L75.1725 26.3185C79.616 32.1118 82.2569 39.3603 82.2569 47.2257ZM13.4887 47.2257C13.4887 46.2786 13.527 45.3404 13.6021 44.4126H1.06835C1.01328 45.3433 0.985352 46.2812 0.985352 47.2257H13.4887ZM14.4264 39.2163L2.15426 36.7752C2.56378 34.9761 3.07677 33.2164 3.68664 31.5026L16.1333 33.9784C15.4303 35.6608 14.8572 37.4109 14.4264 39.2163ZM18.5185 29.3111L6.86089 24.4824C7.73713 22.9057 8.70165 21.3848 9.74777 19.9264L21.7305 24.8898C20.5476 26.2729 19.4726 27.751 18.5185 29.3111ZM25.2788 21.3063L14.6114 14.1786C15.8621 12.9198 17.1838 11.7316 18.5699 10.6206L29.6794 18.0437C28.125 19.0149 26.6537 20.1068 25.2788 21.3063ZM33.7954 15.8461L24.5122 6.56295C26.0295 5.68945 27.6001 4.89841 29.2182 4.19597L39.0154 13.9932C37.213 14.4724 35.4687 15.0943 33.7954 15.8461ZM43.0477 13.1774L35.5602 1.97159C37.2264 1.51934 38.9295 1.15664 40.6639 0.889001L48.6562 12.8503C48.3958 12.8445 48.1346 12.8416 47.8728 12.8416C46.2352 12.8416 44.6243 12.9561 43.0477 13.1774ZM52.0351 13.0909L46.7582 0.351245C47.1287 0.342602 47.5002 0.338257 47.8728 0.338257C49.2289 0.338257 50.5715 0.395828 51.8984 0.508659L57.5827 14.2317C55.79 13.705 53.9364 13.3204 52.0351 13.0909ZM59.9991 15.0409L57.2616 1.27848C58.9196 1.61545 60.5458 2.03992 62.1351 2.54685L65.1022 17.4632C63.4805 16.5223 61.7748 15.7103 59.9991 15.0409ZM66.5236 18.3346V4.19437C68.0248 4.84588 69.4851 5.57365 70.8998 6.37277V21.6906C69.5357 20.4597 68.0725 19.3366 66.5236 18.3346ZM71.5247 22.2685L74.2695 8.46917C75.5638 9.35237 76.8115 10.2987 78.0083 11.3037L75.0526 26.163C73.9765 24.7764 72.7966 23.4744 71.5247 22.2685Z" fill="#FBFF3A"/>
<path fill-rule="evenodd" clip-rule="evenodd" d="M69.7534 47.2257H82.2567C82.2567 46.6272 82.2415 46.0323 82.2112 45.4414L75.9916 45.3328L82.1275 44.2233C81.9987 42.7342 81.7749 41.2722 81.4624 39.8435L74.4174 41.1174L81.1326 38.4722C80.7676 37.0818 80.3178 35.7258 79.789 34.41L72.1041 37.4372L79.1437 32.9092C78.5673 31.6523 77.9174 30.4361 77.1994 29.2662L69.2045 34.4087L76.1678 27.6843C75.4111 26.5907 74.5926 25.5431 73.7174 24.5465L65.8778 32.1171L72.2315 22.9582C71.3296 22.0529 70.3776 21.1976 69.3799 20.3967L62.2962 30.6078L67.383 18.909C66.3745 18.2128 65.3269 17.5691 64.2443 16.9819L59.2281 28.5184C65.5387 32.3572 69.7534 39.2992 69.7534 47.2257ZM25.9918 47.2257H13.4885C13.4885 46.6446 13.5029 46.0669 13.5314 45.493L26.0434 45.7114C26.0092 46.2117 25.9918 46.7166 25.9918 47.2257ZM61.7052 15.7372C60.6328 15.2654 59.5317 14.8468 58.4053 14.4847L55.7316 26.7986C56.857 27.2319 57.9376 27.7555 58.9644 28.3605L61.7052 15.7372ZM55.3357 13.6537C54.246 13.4126 53.1368 13.2231 52.0109 13.088L51.7908 25.6947C52.9305 25.9007 54.0394 26.195 55.1103 26.5702L55.3357 13.6537ZM47.8726 12.8416C46.9962 12.8416 46.1274 12.8743 45.2674 12.9388L47.5113 25.3478C47.6315 25.3458 47.752 25.3449 47.8726 25.3449C48.8565 25.3449 49.8252 25.4098 50.7747 25.5356L48.4802 12.8468C48.2781 12.8433 48.0756 12.8416 47.8726 12.8416ZM41.3481 26.3342L34.4248 15.5708C33.5356 15.949 32.6656 16.3636 31.8167 16.8127L38.6211 27.3912C39.4998 26.9806 40.4104 26.6267 41.3481 26.3342ZM36.7596 28.373L27.9201 19.2194C27.1798 19.7478 26.4613 20.3048 25.7662 20.8889L34.4848 29.9172C35.2083 29.3568 35.968 28.8407 36.7596 28.373ZM22.2571 24.288C21.6873 24.9239 21.1408 25.5812 20.619 26.2585L30.9128 33.3995C31.4566 32.7333 32.0388 32.0997 32.6562 31.5021L22.2571 24.288ZM17.7841 30.571C17.3966 31.2694 17.0328 31.9828 16.6937 32.71L28.1688 37.6996C28.52 36.9745 28.91 36.2717 29.3362 35.594L17.7841 30.571ZM14.8054 37.7688C14.6011 38.4843 14.4195 39.2093 14.2613 39.9431L26.4824 42.5965C26.641 41.8603 26.8367 41.1378 27.0673 40.4311L14.8054 37.7688ZM46.1146 25.4145C45.0706 25.4975 44.0472 25.6537 43.0496 25.8782L38.4313 14.154C39.4045 13.8767 40.3952 13.6412 41.4015 13.4496L46.1146 25.4145Z" fill="#FBFF3A"/>
<path fill-rule="evenodd" clip-rule="evenodd" d="M68.0081 47.2256L69.7535 47.1647C69.7526 46.8155 69.7434 46.4682 69.7263 46.1231L59.1198 46.4934L58.934 46.4632L69.5134 43.9721C69.4541 43.5746 69.3842 43.1806 69.3038 42.7904L59.257 45.1562L68.7975 40.8083C68.6641 40.3729 68.5175 39.9433 68.3582 39.5199L59.4232 43.5918L67.5848 37.7163C67.363 37.2574 67.1256 36.8073 66.8734 36.3669L59.1906 41.8977L65.8531 34.7531C65.5306 34.2891 65.1907 33.8382 64.8341 33.4013L58.5181 40.1745L63.5808 31.9932C63.1486 31.5475 62.6976 31.1202 62.229 30.7125L57.3889 38.534L60.7532 29.5358C60.2069 29.1373 59.6414 28.7635 59.0583 28.416L55.8152 37.0903L57.3754 27.5104C56.718 27.193 56.0423 26.9075 55.3504 26.6559L53.8357 35.9565L53.4905 26.0727C52.7356 25.8728 51.9647 25.7121 51.1801 25.5932L51.5168 35.2351L49.1973 25.3843C48.7591 25.3581 48.3175 25.3448 47.8728 25.3448C47.4726 25.3448 47.0749 25.3556 46.68 25.3768L48.9499 35.0169L44.6495 25.5806C43.7605 25.7119 42.8888 25.8966 42.0379 26.1314L46.2472 35.3678L40.0643 26.7792C39.1828 27.1161 38.3286 27.5083 37.5061 27.9516L43.5388 36.3316L35.7118 29.0328C34.8908 29.5827 34.109 30.1867 33.3717 30.8397L40.9627 37.9184L31.8767 32.2958C31.172 33.0506 30.5201 33.8552 29.9268 34.7039L38.6639 40.1106L28.8333 36.4351C28.3019 37.3708 27.8374 38.3496 27.4464 39.3649L36.7829 42.8557L26.8226 41.2335C26.5169 42.3094 26.2915 43.419 26.1532 44.5554L35.4472 46.0691L26.0073 46.3987C25.9971 46.6731 25.9919 46.9488 25.9919 47.2256H38.4953C38.4953 42.0466 42.6937 37.8482 47.8728 37.8482C53.0518 37.8482 57.2503 42.0466 57.2503 47.2256L68.0081 47.2256Z" fill="#FBFF3A"/>
<path fill-rule="evenodd" clip-rule="evenodd" d="M82.2566 46.6118L94.7599 46.6118C94.7599 47.1349 94.7514 47.6559 94.7344 48.1748L84.98 48.1748L94.6325 50.0948C94.5516 51.1977 94.4324 52.29 94.2765 53.3704L85.1259 51.5502L93.9725 55.2146C93.7592 56.3649 93.5039 57.5005 93.2082 58.6197L84.5508 55.0337L92.6797 60.4653C92.3132 61.6521 91.9008 62.8188 91.4446 63.9633L83.2185 58.4668L90.6309 65.8792C90.0875 67.0834 89.4946 68.2605 88.855 69.408L81.133 61.686L87.6524 71.4429C86.9077 72.6334 86.111 73.7881 85.2656 74.9038L78.3301 64.5241L83.5249 77.0654C82.5586 78.1956 81.5396 79.2792 80.4715 80.3126L75.1723 67.519C79.6157 61.7257 82.2566 54.4772 82.2566 46.6118ZM13.4884 46.6119C13.4884 47.559 13.5267 48.4971 13.6018 49.4249L1.0681 49.4249C1.01303 48.4943 0.985103 47.5563 0.985103 46.6119L13.4884 46.6119ZM14.4262 54.6212L2.15401 57.0623C2.56354 58.8614 3.07653 60.6211 3.68639 62.3349L16.1331 59.8591C15.4301 58.1768 14.8569 56.4266 14.4262 54.6212ZM18.5182 64.5264L6.86065 69.3552C7.73688 70.9319 8.7014 72.4527 9.74752 73.9111L21.7302 68.9477C20.5474 67.5646 19.4724 66.0865 18.5182 64.5264ZM25.2786 72.5312L14.6111 79.6589C15.8619 80.9177 17.1835 82.1059 18.5697 83.2169L29.6792 75.7938C28.1247 74.8227 26.6535 73.7307 25.2786 72.5312ZM33.7951 77.9914L24.512 87.2746C26.0292 88.1481 27.5999 88.9391 29.218 89.6416L39.0152 79.8443C37.2127 79.3652 35.4684 78.7433 33.7951 77.9914ZM43.0475 80.6601L35.56 91.8659C37.2262 92.3182 38.9292 92.6809 40.6637 92.9485L48.656 80.9872C48.3955 80.993 48.1344 80.996 47.8725 80.996C46.2349 80.996 44.624 80.8815 43.0475 80.6601ZM52.0349 80.7466L46.7579 93.4863C47.1284 93.4949 47.5 93.4993 47.8725 93.4993C49.2286 93.4993 50.5713 93.4417 51.8982 93.3289L57.5825 79.6058C55.7897 80.1325 53.9362 80.5171 52.0349 80.7466ZM59.9989 78.7966L57.2613 92.559C58.9193 92.2221 60.5455 91.7976 62.1349 91.2907L65.1019 76.3743C63.4802 77.3152 61.7745 78.1273 59.9989 78.7966ZM66.5234 75.5029L66.5234 89.6431C68.0245 88.9916 69.4849 88.2639 70.8996 87.4648L70.8996 72.147C69.5355 73.3778 68.0723 74.501 66.5234 75.5029ZM71.5244 71.569L74.2693 85.3683C75.5635 84.4851 76.8112 83.5388 78.008 82.5338L75.0523 67.6745C73.9762 69.0611 72.7964 70.3632 71.5244 71.569Z" fill="#FBFF3A"/>
<path fill-rule="evenodd" clip-rule="evenodd" d="M69.7532 46.6119L82.2565 46.6119C82.2565 47.2103 82.2412 47.8052 82.211 48.3961L75.9914 48.5047L82.1272 49.6142C81.9984 51.1034 81.7747 52.5653 81.4621 53.9941L74.4171 52.7201L81.1323 55.3653C80.7674 56.7557 80.3176 58.1117 79.7888 59.4275L72.1039 56.4003L79.1434 60.9283C78.5671 62.1853 77.9171 63.4014 77.1992 64.5713L69.2043 59.4288L76.1676 66.1532C75.4109 67.2468 74.5924 68.2945 73.7172 69.291L65.8775 61.7204L72.2313 70.8793C71.3294 71.7846 70.3773 72.64 69.3796 73.4408L62.296 63.2297L67.3827 74.9285C66.3742 75.6247 65.3267 76.2684 64.2441 76.8557L59.2279 65.3191C65.5385 61.4803 69.7532 54.5383 69.7532 46.6119ZM25.9916 46.6119L13.4883 46.6119C13.4883 47.1929 13.5027 47.7706 13.5312 48.3446L26.0432 48.1262C26.009 47.6258 25.9916 47.1209 25.9916 46.6119ZM61.7049 78.1003C60.6325 78.5721 59.5314 78.9907 58.405 79.3528L55.7314 67.0389C56.8568 66.6056 57.9373 66.0821 58.9641 65.477L61.7049 78.1003ZM55.3355 80.1838C54.2457 80.425 53.1365 80.6144 52.0106 80.7495L51.7906 68.1428C52.9302 67.9368 54.0391 67.6425 55.11 67.2673L55.3355 80.1838ZM47.8724 80.996C46.9959 80.996 46.1271 80.9632 45.2672 80.8988L47.5111 68.4897C47.6313 68.4917 47.7517 68.4927 47.8724 68.4927C48.8563 68.4927 49.825 68.4277 50.7745 68.3019L48.48 80.9907C48.2779 80.9942 48.0753 80.996 47.8724 80.996ZM41.3478 67.5034L34.4246 78.2668C33.5354 77.8885 32.6654 77.4739 31.8165 77.0248L38.6208 66.4463C39.4996 66.8569 40.4102 67.2108 41.3478 67.5034ZM36.7594 65.4645L27.9198 74.6181C27.1795 74.0897 26.461 73.5327 25.766 72.9487L34.4846 63.9203C35.2081 64.4807 35.9677 64.9968 36.7594 65.4645ZM22.2569 69.5495C21.6871 68.9136 21.1406 68.2563 20.6187 67.5791L30.9125 60.438C31.4563 61.1043 32.0386 61.7379 32.656 62.3354L22.2569 69.5495ZM17.7838 63.2666C17.3964 62.5681 17.0326 61.8547 16.6934 61.1275L28.1685 56.138C28.5197 56.8631 28.9098 57.5658 29.336 58.2436L17.7838 63.2666ZM14.8051 56.0687C14.6009 55.3532 14.4192 54.6282 14.261 53.8945L26.4822 51.241C26.6408 51.9772 26.8364 52.6997 27.067 53.4064L14.8051 56.0687ZM46.1143 68.4231C45.0703 68.3401 44.047 68.1838 43.0494 67.9594L38.4311 79.6836C39.4042 79.9608 40.395 80.1963 41.4012 80.388L46.1143 68.4231Z" fill="#FBFF3A"/>
<path fill-rule="evenodd" clip-rule="evenodd" d="M68.0079 46.6119L69.7533 46.6728C69.7523 47.022 69.7432 47.3693 69.7261 47.7145L59.1195 47.3441L58.9338 47.3743L69.5131 49.8654C69.4539 50.2629 69.3839 50.6569 69.3036 51.0471L59.2567 48.6814L68.7972 53.0292C68.6639 53.4646 68.5173 53.8942 68.358 54.3176L59.423 50.2457L67.5846 56.1212C67.3627 56.5801 67.1254 57.0302 66.8731 57.4706L59.1904 51.9399L65.8528 59.0844C65.5304 59.5484 65.1904 59.9993 64.8339 60.4362L58.5178 53.6631L63.5806 61.8444C63.1483 62.29 62.6973 62.7173 62.2288 63.125L57.3887 55.3035L60.753 64.3017C60.2066 64.7002 59.6411 65.074 59.0581 65.4215L55.8149 56.7472L57.3751 66.3271C56.7177 66.6445 56.0421 66.9301 55.3501 67.1816L53.8354 57.881L53.4903 67.7648C52.7354 67.9648 51.9645 68.1254 51.1799 68.2443L51.5166 58.6024L49.197 68.4532C48.7589 68.4794 48.3172 68.4927 47.8725 68.4927C47.4723 68.4927 47.0746 68.4819 46.6797 68.4607L48.9497 58.8206L44.6493 68.2569C43.7602 68.1257 42.8886 67.9409 42.0377 67.7061L46.247 58.4697L40.0641 67.0583C39.1825 66.7214 38.3284 66.3292 37.5059 65.8859L43.5386 57.5059L35.7115 64.8047C34.8905 64.2548 34.1088 63.6508 33.3714 62.9978L40.9625 55.9191L31.8765 61.5417C31.1717 60.787 30.5198 59.9823 29.9265 59.1337L38.6637 53.727L28.8331 57.4025C28.3016 56.4667 27.8371 55.4879 27.4461 54.4726L36.7826 50.9819L26.8223 52.604C26.5167 51.5282 26.2913 50.4186 26.153 49.2821L35.447 47.7685L26.007 47.4388C25.9968 47.1644 25.9917 46.8888 25.9917 46.6119L38.495 46.6119C38.495 51.7909 42.6935 55.9894 47.8725 55.9894C53.0516 55.9894 57.25 51.7909 57.25 46.6119L68.0079 46.6119Z" fill="#FBFF3A"/>
</svg>
