<svg width="24" height="24" viewBox="0 0 24 24" xmlns="http://www.w3.org/2000/svg"><path d="M18.2929 4.29289C18.6834 3.90237 19.3164 3.90237 19.707 4.29289C20.0975 4.68342 20.0975 5.31643 19.707 5.70696L5.70696 19.707C5.31643 20.0975 4.68342 20.0975 4.29289 19.707C3.90237 19.3164 3.90237 18.6834 4.29289 18.2929L18.2929 4.29289Z"/><path d="M8 6.5C8 5.67157 7.32843 5 6.5 5C5.67157 5 5 5.67157 5 6.5C5 7.32843 5.67157 8 6.5 8C7.32843 8 8 7.32843 8 6.5ZM10 6.5C10 8.433 8.433 10 6.5 10C4.567 10 3 8.433 3 6.5C3 4.567 4.567 3 6.5 3C8.433 3 10 4.567 10 6.5Z"/><path d="M19 17.5C19 16.6716 18.3284 16 17.5 16C16.6716 16 16 16.6716 16 17.5C16 18.3284 16.6716 19 17.5 19C18.3284 19 19 18.3284 19 17.5ZM21 17.5C21 19.433 19.433 21 17.5 21C15.567 21 14 19.433 14 17.5C14 15.567 15.567 14 17.5 14C19.433 14 21 15.567 21 17.5Z"/></svg>
